<svg xmlns:xlink="http://www.w3.org/1999/xlink"  xmlns="http://www.w3.org/2000/svg" fill="none" viewBox="0 0 24 24" class="[&amp;_path]:fill-[currentColor] [:where(&amp;)]:h-[1.5rem] [:where(&amp;)]:w-[1.5rem] [:where(&amp;)]:lg:h-[2rem] [:where(&amp;)]:lg:w-[2rem] w-Icon/md h-Icon/md inline flex-shrink-0"><path fill="#F2F2F2" fill-rule="evenodd" d="m20.713 10.535.081.069a.7.7 0 0 1 .194.477.694.694 0 0 1-1.146.524l-.825-.693-7.016-5.865-6.793 5.67-.022.019-.989.827a.68.68 0 0 1-.492.208.694.694 0 0 1-.692-.693c0-.188.08-.355.203-.482h-.003l.03-.024.022-.022.91-.762 7.826-6.538 7.616 6.365.007.007 1.058.884.016.014zm-2.69 2.485a.69.69 0 0 1 .688-.69.69.69 0 0 1 .688.69v6.922a.81.81 0 0 1-.808.808H5.404a.81.81 0 0 1-.808-.808V13.02a.69.69 0 1 1 1.381 0v6.342H7.38v.01h10.64l.003-.003V13.02m.688-.69h.003-.005z" clip-rule="evenodd"></path></svg>