<svg xmlns:xlink="http://www.w3.org/1999/xlink"  xmlns="http://www.w3.org/2000/svg" fill="none" viewBox="0 0 24 24" class="[&amp;_path]:fill-[currentColor] [:where(&amp;)]:h-[1.5rem] [:where(&amp;)]:w-[1.5rem] [:where(&amp;)]:lg:h-[2rem] [:where(&amp;)]:lg:w-[2rem] w-Icon/md h-Icon/md inline flex-shrink-0"><path fill="#fff" fill-rule="evenodd" d="M10.374 4.205c-1.914 0-3.72.895-4.89 2.42a6.25 6.25 0 0 0-1.081 5.373 6.2 6.2 0 0 0 3.566 4.145 6.15 6.15 0 0 0 6.068-.752l4.09 4.116a.978.978 0 1 0 1.388-1.38l-4.117-4.142a6.24 6.24 0 0 0 1.08-4.336 6.21 6.21 0 0 0-3.7-4.955 6.1 6.1 0 0 0-2.404-.489m-.013 10.923a4.713 4.713 0 1 0 0-9.426 4.713 4.713 0 0 0 0 9.426" clip-rule="evenodd"></path></svg>