<svg xmlns:xlink="http://www.w3.org/1999/xlink"  xmlns="http://www.w3.org/2000/svg" fill="none" viewBox="0 0 24 24" class="[&amp;_path]:fill-[currentColor] [:where(&amp;)]:h-[1.5rem] [:where(&amp;)]:w-[1.5rem] [:where(&amp;)]:lg:h-[2rem] [:where(&amp;)]:lg:w-[2rem] w-Icon/md h-Icon/md inline flex-shrink-0"><path fill="#F2F2F2" d="M19.909 5.866h-6.973l1.868-1.868a.345.345 0 0 0 0-.485l-.253-.253a.345.345 0 0 0-.485 0L12 5.326 9.934 3.26a.345.345 0 0 0-.485 0l-.254.253a.345.345 0 0 0 0 .485l1.868 1.868H4.091a.96.96 0 0 0-.956.956v11.382c0 .526.43.956.956.956h15.818c.526 0 .956-.43.956-.956V6.82a.96.96 0 0 0-.956-.956zm-.434 11.81H4.525V7.348h14.95z"></path><path fill="#F2F2F2" d="m9.841 13.338 2.397-5.25a.15.15 0 0 1 .284.085l-.566 3.688 2.037-.408a.15.15 0 0 1 .165.21l-2.396 5.25a.15.15 0 0 1-.285-.086l.567-3.688-2.037.408a.15.15 0 0 1-.166-.21"></path></svg>